<svg width="790" height="308" viewBox="0 0 790 308" fill="none" xmlns="http://www.w3.org/2000/svg">
<g filter="url(#filter0_d_1_1867)">
<rect x="44" y="30" width="701.94" height="220" rx="10" fill="#51459E"/>
</g>
<mask id="mask0_1_1867" style="mask-type:alpha" maskUnits="userSpaceOnUse" x="50" y="30" width="696" height="220">
<rect x="50.0599" y="30" width="695" height="220" rx="10" fill="#51459E"/>
</mask>
<g mask="url(#mask0_1_1867)">
<path d="M623.6 235.6C628.873 235.6 633.145 231.37 633.145 226.15C627.873 226.15 623.6 230.38 623.6 235.6Z" fill="#84E8F4"/>
<path d="M637.74 222.98C637.74 231.71 644.881 238.78 653.698 238.78C653.698 230.05 646.547 222.98 637.74 222.98Z" fill="#84E8F4"/>
<path d="M587.696 173.42C587.696 179.97 593.059 185.27 599.664 185.27C599.664 178.73 594.301 173.42 587.696 173.42Z" fill="#B3B3B3"/>
<path d="M708.247 83.07C715.812 83.07 721.953 76.99 721.953 69.5C714.388 69.5 708.247 75.57 708.247 83.07Z" fill="#84E8F4"/>
<path d="M584.403 102.65C575.495 102.65 568.273 109.8 568.273 118.62C577.182 118.62 584.403 111.47 584.403 102.65Z" fill="#84E8F4"/>
<path d="M690.3 169.55C698.542 169.55 705.217 162.94 705.217 154.78C696.976 154.78 690.3 161.4 690.3 169.55Z" fill="#B3B3B3"/>
<path d="M686.826 138.64C679.736 138.64 673.989 144.33 673.989 151.35C681.079 151.35 686.826 145.66 686.826 138.64Z" fill="#84E8F4"/>
<path d="M669.131 82.3C669.131 75.66 663.697 70.28 656.991 70.28C656.991 76.91 662.424 82.3 669.131 82.3Z" fill="#DEE1E6"/>
<path d="M589.342 243.76C589.342 248.5 593.22 252.35 598.018 252.35C598.018 247.6 594.129 243.76 589.342 243.76Z" fill="#B3B3B3"/>
<path d="M719.872 63.83C719.872 58.61 715.6 54.38 710.328 54.38C710.328 59.6 714.6 63.83 719.872 63.83Z" fill="#84E8F4"/>
<path d="M725.771 65.72C733.144 65.72 739.123 59.8 739.123 52.49C731.75 52.49 725.771 58.41 725.771 65.72Z" fill="#84E8F4"/>
<path d="M688.906 33.17C688.906 23.87 681.291 16.34 671.908 16.34C671.908 25.63 679.523 33.17 688.906 33.17Z" fill="#84E8F4"/>
<path d="M668.181 47C668.181 41.4 663.596 36.87 657.95 36.87C657.95 42.46 662.525 47 668.181 47Z" fill="#B3B3B3"/>
<path d="M606.34 46.57C611.511 46.57 615.702 42.42 615.702 37.29C610.531 37.29 606.34 41.44 606.34 46.57Z" fill="#B3B3B3"/>
<path d="M656.213 138.21C656.213 145.7 662.344 151.78 669.918 151.78C669.918 144.28 663.778 138.21 656.213 138.21Z" fill="#84E8F4"/>
<path d="M600.613 48.8C600.613 41.21 594.402 35.06 586.736 35.06C586.736 42.65 592.958 48.8 600.613 48.8Z" fill="#DEE1E6"/>
<path d="M571.213 122.75C571.213 128.35 575.798 132.88 581.444 132.88C581.454 127.28 576.868 122.75 571.213 122.75Z" fill="#84E8F4"/>
<path d="M563.931 122.92C558.467 122.92 554.043 127.3 554.043 132.71C559.507 132.71 563.931 128.33 563.931 122.92Z" fill="#DEE1E6"/>
<path d="M693.421 71.99C693.421 76.73 697.299 80.58 702.097 80.58C702.097 75.83 698.208 71.99 693.421 71.99Z" fill="#B3B3B3"/>
<path d="M617.874 65.89C617.874 58.4 611.743 52.32 604.168 52.32C604.178 59.82 610.309 65.89 617.874 65.89Z" fill="#84E8F4"/>
<path d="M493.939 89.17C489.151 89.17 485.263 93.02 485.263 97.76C490.06 97.75 493.939 93.91 493.939 89.17Z" fill="#84E8F4"/>
<path d="M617.965 31.62C617.965 24.03 611.753 17.88 604.088 17.88C604.088 25.47 610.299 31.62 617.965 31.62Z" fill="#B3B3B3"/>
<path d="M640.69 157.19C640.69 162.69 645.194 167.15 650.749 167.15C650.749 161.65 646.244 157.19 640.69 157.19Z" fill="#84E8F4"/>
<path d="M618.833 137.26C610.208 137.26 603.219 144.18 603.219 152.72C611.844 152.72 618.833 145.8 618.833 137.26Z" fill="#84E8F4"/>
<path d="M676.069 226.58C676.069 231.32 679.948 235.17 684.745 235.17C684.745 230.43 680.867 226.58 676.069 226.58Z" fill="#84E8F4"/>
<path d="M691.169 99.99C698.451 99.99 704.349 94.15 704.349 86.94C697.067 86.93 691.169 92.78 691.169 99.99Z" fill="#DEE1E6"/>
<path d="M564.365 53.78C558.426 53.78 553.609 58.55 553.609 64.43C559.547 64.43 564.365 59.66 564.365 53.78Z" fill="#DEE1E6"/>
<path d="M657.516 133.31C663.646 133.31 668.616 128.39 668.616 122.32C662.485 122.32 657.516 127.24 657.516 133.31Z" fill="#84E8F4"/>
<path d="M692.381 174.02C692.381 179.9 697.198 184.67 703.137 184.67C703.137 178.79 698.319 174.02 692.381 174.02Z" fill="#84E8F4"/>
<path d="M669.312 18.57C662.414 18.57 656.819 24.11 656.819 30.94C663.717 30.94 669.312 25.4 669.312 18.57Z" fill="#84E8F4"/>
<path d="M727.76 98.1C732.931 98.1 737.123 93.95 737.123 88.82C731.962 88.82 727.76 92.98 727.76 98.1Z" fill="#B3B3B3"/>
<path d="M691.593 207.6C691.593 214.34 697.107 219.8 703.904 219.8C703.915 213.06 698.4 207.6 691.593 207.6Z" fill="#DEE1E6"/>
<path d="M691.684 202.53C698.39 202.53 703.824 197.15 703.824 190.51C697.117 190.51 691.684 195.89 691.684 202.53Z" fill="#84E8F4"/>
<path d="M641.295 80.66C646.184 80.66 650.143 76.74 650.143 71.9C645.255 71.9 641.295 75.83 641.295 80.66Z" fill="#84E8F4"/>
<path d="M636.609 50.95C627.509 50.95 620.126 58.26 620.126 67.27C629.236 67.27 636.609 59.96 636.609 50.95Z" fill="#84E8F4"/>
<path d="M653.961 67.27C653.961 58.26 646.588 50.95 637.478 50.95C637.478 59.96 644.861 67.27 653.961 67.27Z" fill="#B3B3B3"/>
<path d="M692.552 139.84C692.552 145.53 697.208 150.15 702.955 150.15C702.955 144.45 698.299 139.84 692.552 139.84Z" fill="#84E8F4"/>
<path d="M619.702 205.11C619.702 214.6 627.469 222.29 637.043 222.29C637.043 212.8 629.277 205.11 619.702 205.11Z" fill="#DEE1E6"/>
<path d="M623.51 201.33C628.873 201.33 633.226 197.02 633.226 191.71C627.863 191.71 623.51 196.02 623.51 201.33Z" fill="#84E8F4"/>
<path d="M549.447 137.26C540.822 137.26 533.833 144.18 533.833 152.72C542.458 152.72 549.447 145.8 549.447 137.26Z" fill="#DEE1E6"/>
<path d="M536.52 122.75C536.52 128.35 541.105 132.88 546.751 132.88C546.761 127.28 542.175 122.75 536.52 122.75Z" fill="#DEE1E6"/>
<path d="M571.909 192.14C571.909 196.98 575.869 200.9 580.757 200.9C580.757 196.06 576.798 192.14 571.909 192.14Z" fill="#84E8F4"/>
<path d="M604.784 121.63C604.784 128.46 610.38 134 617.278 134C617.268 127.17 611.683 121.63 604.784 121.63Z" fill="#84E8F4"/>
<path d="M619.702 136.4C619.702 145.89 627.469 153.58 637.043 153.58C637.043 144.09 629.277 136.4 619.702 136.4Z" fill="#DEE1E6"/>
<path d="M654.395 136.4C644.81 136.4 637.054 144.09 637.054 153.58C646.628 153.58 654.395 145.89 654.395 136.4Z" fill="#84E8F4"/>
<path d="M640.861 123C640.861 128.31 645.214 132.62 650.577 132.62C650.577 127.31 646.224 123 640.861 123Z" fill="#84E8F4"/>
<path d="M622.298 133.83C629.004 133.83 634.438 128.45 634.438 121.81C627.731 121.8 622.298 127.19 622.298 133.83Z" fill="#84E8F4"/>
<path d="M634.094 47.6C634.094 41.34 628.974 36.26 622.641 36.26C622.651 42.52 627.772 47.6 634.094 47.6Z" fill="#84E8F4"/>
<path d="M636.528 16.68C627.519 16.68 620.227 23.91 620.227 32.83C629.226 32.83 636.528 25.6 636.528 16.68Z" fill="#84E8F4"/>
<path d="M653.526 32.48C653.526 23.94 646.537 17.02 637.912 17.02C637.912 25.56 644.901 32.48 653.526 32.48Z" fill="#84E8F4"/>
<path d="M652.223 172.9C645.042 172.9 639.215 178.67 639.215 185.78C646.396 185.79 652.223 180.02 652.223 172.9Z" fill="#84E8F4"/>
<path d="M656.991 207.69C656.991 214.33 662.424 219.71 669.131 219.71C669.131 213.07 663.697 207.69 656.991 207.69Z" fill="#DEE1E6"/>
<path d="M687.694 206.49C679.645 206.49 673.12 212.95 673.12 220.92C681.17 220.91 687.694 214.45 687.694 206.49Z" fill="#84E8F4"/>
<path d="M675.817 191.97C675.817 197 679.938 201.07 685.008 201.07C685.008 196.05 680.887 191.97 675.817 191.97Z" fill="#84E8F4"/>
<path d="M654.647 204.85C663.939 204.85 671.474 197.39 671.474 188.19C662.182 188.19 654.647 195.65 654.647 204.85Z" fill="#DEE1E6"/>
<path d="M727.417 243.07C727.417 248.57 731.922 253.03 737.476 253.03C737.476 247.53 732.972 243.07 727.417 243.07Z" fill="#DEE1E6"/>
<path d="M566.183 17.62C558.234 17.62 551.791 24 551.791 31.88C559.739 31.88 566.183 25.5 566.183 17.62Z" fill="#B3B3B3"/>
<path d="M563.931 46.82C563.931 41.41 559.507 37.03 554.043 37.03C554.043 42.44 558.467 46.82 563.931 46.82Z" fill="#DEE1E6"/>
<path d="M656.041 100.42C663.798 100.42 670.09 94.19 670.09 86.51C662.333 86.5 656.041 92.73 656.041 100.42Z" fill="#DEE1E6"/>
<path d="M724.205 170.33C733.305 170.33 740.688 163.02 740.688 154.01C731.588 154.01 724.205 161.32 724.205 170.33Z" fill="#84E8F4"/>
<path d="M725.336 137.95C725.336 145.73 731.709 152.04 739.557 152.04C739.557 144.26 733.194 137.95 725.336 137.95Z" fill="#DEE1E6"/>
<path d="M650.406 106C645.234 106 641.043 110.15 641.043 115.28C646.204 115.28 650.406 111.12 650.406 106Z" fill="#DEE1E6"/>
<path d="M623.691 106C623.691 111.12 627.883 115.28 633.054 115.28C633.054 110.15 628.863 106 623.691 106Z" fill="#B3B3B3"/>
<path d="M534.267 86.16C534.267 94.22 540.873 100.76 549.013 100.76C549.013 92.7 542.408 86.16 534.267 86.16Z" fill="#84E8F4"/>
<path d="M727.245 236.03C732.992 236.03 737.648 231.42 737.648 225.72C731.901 225.72 727.245 230.34 727.245 236.03Z" fill="#84E8F4"/>
<path d="M719.529 209.32C714.641 209.32 710.681 213.24 710.681 218.08C715.56 218.08 719.529 214.16 719.529 209.32Z" fill="#84E8F4"/>
<path d="M429.33 16.59C429.33 25.6 436.703 32.91 445.813 32.91C445.803 23.9 438.43 16.59 429.33 16.59Z" fill="#B3B3B3"/>
<path d="M476.94 37.29C471.769 37.29 467.578 41.44 467.578 46.57C472.749 46.57 476.94 42.41 476.94 37.29Z" fill="#84E8F4"/>
<path d="M512.583 70.7C506.351 70.7 501.311 75.7 501.311 81.87C507.543 81.87 512.583 76.87 512.583 70.7Z" fill="#DEE1E6"/>
<path d="M502.18 88.74C502.18 93.96 506.452 98.19 511.724 98.19C511.724 92.97 507.452 88.74 502.18 88.74Z" fill="#84E8F4"/>
<path d="M531.237 86.59C523.572 86.59 517.36 92.74 517.36 100.33C525.026 100.33 531.237 94.18 531.237 86.59Z" fill="#B3B3B3"/>
<path d="M689.866 238.69C698.582 238.69 705.652 231.69 705.652 223.06C696.925 223.06 689.866 230.06 689.866 238.69Z" fill="#84E8F4"/>
<path d="M710.156 225.98C710.156 231.39 714.58 235.77 720.044 235.77C720.044 230.36 715.62 225.98 710.156 225.98Z" fill="#DEE1E6"/>
<path d="M685.957 242.56C679.826 242.56 674.857 247.48 674.857 253.55C680.988 253.55 685.957 248.63 685.957 242.56Z" fill="#84E8F4"/>
<path d="M692.381 242.73C692.381 248.61 697.198 253.38 703.137 253.38C703.137 247.5 698.319 242.73 692.381 242.73Z" fill="#84E8F4"/>
<path d="M675.12 156.93C675.12 162.72 679.857 167.41 685.705 167.41C685.705 161.62 680.958 156.93 675.12 156.93Z" fill="#84E8F4"/>
<path d="M655.435 169.73C663.869 169.73 670.696 162.96 670.696 154.61C662.263 154.61 655.435 161.38 655.435 169.73Z" fill="#DEE1E6"/>
<path d="M655.001 171.36C655.001 180.18 662.222 187.33 671.13 187.33C671.13 178.51 663.909 171.36 655.001 171.36Z" fill="#84E8F4"/>
<path d="M581.1 243.33C575.828 243.33 571.556 247.56 571.556 252.78C576.828 252.78 581.1 248.55 581.1 243.33Z" fill="#B3B3B3"/>
<path d="M554.214 243.33C554.214 248.55 558.487 252.78 563.759 252.78C563.759 247.56 559.487 243.33 554.214 243.33Z" fill="#84E8F4"/>
<path d="M602.785 84.44C611.885 84.44 619.268 77.13 619.268 68.12C610.168 68.12 602.785 75.43 602.785 84.44Z" fill="#DEE1E6"/>
<path d="M599.926 116.82C599.926 109.99 594.331 104.45 587.433 104.45C587.433 111.28 593.028 116.82 599.926 116.82Z" fill="#DEE1E6"/>
<path d="M619.611 102.13C610.127 102.13 602.441 109.74 602.441 119.14C611.925 119.14 619.611 111.53 619.611 102.13Z" fill="#84E8F4"/>
<path d="M605.471 87.96C605.471 94.03 610.44 98.95 616.571 98.95C616.571 92.89 611.602 87.96 605.471 87.96Z" fill="#B3B3B3"/>
<path d="M690.472 66.32C698.521 66.32 705.046 59.86 705.046 51.89C696.996 51.89 690.472 58.35 690.472 66.32Z" fill="#84E8F4"/>
<path d="M685.523 64.17C685.523 58.57 680.937 54.04 675.292 54.04C675.292 59.64 679.877 64.17 685.523 64.17Z" fill="#84E8F4"/>
<path d="M675.726 46.57C680.897 46.57 685.088 42.42 685.088 37.29C679.917 37.29 675.726 41.44 675.726 46.57Z" fill="#DEE1E6"/>
<path d="M707.379 49.57C715.903 49.57 722.822 42.73 722.822 34.28C714.297 34.29 707.379 41.13 707.379 49.57Z" fill="#84E8F4"/>
<path d="M705.036 49.14C705.036 41.17 698.511 34.71 690.462 34.71C690.472 42.68 696.996 49.14 705.036 49.14Z" fill="#84E8F4"/>
<path d="M724.205 204.68C733.305 204.68 740.688 197.37 740.688 188.36C731.588 188.36 724.205 195.67 724.205 204.68Z" fill="#84E8F4"/>
<path d="M726.639 207.95C726.639 214.31 731.841 219.46 738.264 219.46C738.254 213.1 733.053 207.95 726.639 207.95Z" fill="#DEE1E6"/>
<path d="M546.67 71.3C541.115 71.3 536.61 75.76 536.61 81.26C542.165 81.26 546.67 76.8 546.67 71.3Z" fill="#84E8F4"/>
<path d="M531.146 83.07C531.146 75.58 525.016 69.5 517.441 69.5C517.441 76.99 523.582 83.07 531.146 83.07Z" fill="#DEE1E6"/>
<path d="M726.811 105.05C726.811 111.22 731.861 116.22 738.082 116.22C738.082 110.05 733.032 105.05 726.811 105.05Z" fill="#84E8F4"/>
<path d="M722.65 135.29C722.65 127.04 715.893 120.35 707.561 120.35C707.551 128.6 714.307 135.29 722.65 135.29Z" fill="#84E8F4"/>
<path d="M583.534 69.15C575.586 69.15 569.142 75.53 569.142 83.41C577.091 83.41 583.534 77.03 583.534 69.15Z" fill="#84E8F4"/>
<path d="M600.27 82.81C600.27 75.6 594.372 69.76 587.09 69.76C587.09 76.97 592.988 82.81 600.27 82.81Z" fill="#84E8F4"/>
<path d="M688.391 135.72C688.391 126.99 681.25 119.92 672.433 119.92C672.433 128.64 679.574 135.72 688.391 135.72Z" fill="#B3B3B3"/>
<path d="M692.552 132.97C698.299 132.97 702.955 128.36 702.955 122.66C697.208 122.66 692.552 127.28 692.552 132.97Z" fill="#B3B3B3"/>
<path d="M672.342 118.62C681.251 118.62 688.472 111.47 688.472 102.65C679.564 102.65 672.342 109.8 672.342 118.62Z" fill="#84E8F4"/>
<path d="M582.141 173.59C575.717 173.59 570.516 178.74 570.516 185.1C576.939 185.1 582.141 179.95 582.141 173.59Z" fill="#DEE1E6"/>
<path d="M571.909 157.79C571.909 162.63 575.869 166.55 580.757 166.55C580.757 161.71 576.798 157.79 571.909 157.79Z" fill="#84E8F4"/>
<path d="M564.799 156.41C558.376 156.41 553.174 161.56 553.174 167.92C559.598 167.92 564.799 162.77 564.799 156.41Z" fill="#DEE1E6"/>
</g>
<defs>
<filter id="filter0_d_1_1867" x="0" y="0" width="789.94" height="308" filterUnits="userSpaceOnUse" color-interpolation-filters="sRGB">
<feFlood flood-opacity="0" result="BackgroundImageFix"/>
<feColorMatrix in="SourceAlpha" type="matrix" values="0 0 0 0 0 0 0 0 0 0 0 0 0 0 0 0 0 0 127 0" result="hardAlpha"/>
<feOffset dy="14"/>
<feGaussianBlur stdDeviation="22"/>
<feColorMatrix type="matrix" values="0 0 0 0 0.317647 0 0 0 0 0.270588 0 0 0 0 0.619608 0 0 0 0.2 0"/>
<feBlend mode="normal" in2="BackgroundImageFix" result="effect1_dropShadow_1_1867"/>
<feBlend mode="normal" in="SourceGraphic" in2="effect1_dropShadow_1_1867" result="shape"/>
</filter>
</defs>
</svg>
